<svg width="525" height="525" viewBox="0 0 525 525" fill="none" xmlns="http://www.w3.org/2000/svg">
<rect width="525" height="525" rx="145" fill="#FFB2C4" fill-opacity="0.22"/>
<path d="M400.5 169.25C400.5 158.895 392.105 150.5 381.75 150.5H334.55C326.651 128.092 305.509 113.076 281.75 113H244.25C220.491 113.076 199.348 128.092 191.45 150.5H144.25C133.894 150.5 125.5 158.895 125.5 169.25C125.5 179.605 133.894 188 144.25 188H150.5V344.25C150.5 382.22 181.28 413 219.25 413H306.749C344.719 413 375.5 382.22 375.5 344.25V188H381.75C392.105 188 400.5 179.605 400.5 169.25ZM338 344.25C338 361.509 324.009 375.5 306.75 375.5H219.25C201.991 375.5 188 361.509 188 344.25V188H338V344.25Z" fill="#EB7E54"/>
<path d="M231.75 338C242.106 338 250.5 329.605 250.5 319.25V244.25C250.5 233.895 242.106 225.5 231.75 225.5C221.395 225.5 213 233.895 213 244.25V319.25C213 329.605 221.395 338 231.75 338Z" fill="#EB7E54"/>
<path d="M294.25 338C304.605 338 313 329.605 313 319.25V244.25C313 233.895 304.605 225.5 294.25 225.5C283.894 225.5 275.5 233.895 275.5 244.25V319.25C275.5 329.605 283.894 338 294.25 338Z" fill="#EB7E54"/>
</svg>
