<svg width="525" height="525" viewBox="0 0 525 525" fill="none" xmlns="http://www.w3.org/2000/svg">
<rect width="525" height="525" rx="145" fill="#4ED4FF" fill-opacity="0.17"/>
<g clip-path="url(#clip0_72_50)">
<path d="M368.75 257.125V298.25H333.5C324.151 298.25 315.185 301.964 308.574 308.574C301.964 315.185 298.25 324.151 298.25 333.5V368.75H174.875C170.201 368.75 165.718 366.893 162.412 363.588C159.107 360.282 157.25 355.799 157.25 351.125V174.875C157.25 170.201 159.107 165.718 162.412 162.412C165.718 159.107 170.201 157.25 174.875 157.25H280.625C285.299 157.25 289.782 155.393 293.088 152.088C296.393 148.782 298.25 144.299 298.25 139.625C298.25 134.951 296.393 130.468 293.088 127.162C289.782 123.857 285.299 122 280.625 122H174.875C160.852 122 147.403 127.571 137.487 137.487C127.571 147.403 122 160.852 122 174.875V351.125C122 365.148 127.571 378.597 137.487 388.513C147.403 398.429 160.852 404 174.875 404H315.687C329.705 404 343.149 398.434 353.064 388.525L388.513 353.076C398.427 343.162 403.997 329.718 404 315.699V257.125C404 252.451 402.143 247.968 398.838 244.662C395.532 241.357 391.049 239.5 386.375 239.5C381.701 239.5 377.218 241.357 373.912 244.662C370.607 247.968 368.75 252.451 368.75 257.125Z" fill="url(#paint0_linear_72_50)"/>
<path d="M331.067 143.067L184.192 289.942C181.988 292.146 180.75 295.134 180.749 298.25V333.5C180.749 336.616 181.987 339.605 184.191 341.808C186.394 344.012 189.383 345.25 192.499 345.25H227.749C230.865 345.249 233.853 344.011 236.056 341.807L380.946 196.918C385.848 192.19 389.452 186.281 391.411 179.757C393.37 173.234 393.618 166.317 392.132 159.67C390.468 153.489 387.214 147.851 382.693 143.318C378.172 138.786 372.543 135.517 366.366 133.838C360.188 132.158 353.679 132.126 347.486 133.746C341.292 135.365 335.631 138.579 331.067 143.067Z" fill="url(#paint1_linear_72_50)"/>
</g>
<defs>
<linearGradient id="paint0_linear_72_50" x1="263" y1="122" x2="263" y2="404" gradientUnits="userSpaceOnUse">
<stop stop-color="#26124E"/>
<stop offset="0.0001" stop-color="#53B0D3"/>
<stop offset="1" stop-color="#64C7D3"/>
</linearGradient>
<linearGradient id="paint1_linear_72_50" x1="286.919" y1="132.554" x2="286.919" y2="345.25" gradientUnits="userSpaceOnUse">
<stop stop-color="#26124E"/>
<stop offset="0.0001" stop-color="#53B0D3"/>
<stop offset="1" stop-color="#64C7D3"/>
</linearGradient>
<clipPath id="clip0_72_50">
<rect width="282" height="282" fill="white" transform="translate(122 122)"/>
</clipPath>
</defs>
</svg>
